<?xml version="1.0" encoding="UTF-8" standalone="no"?>
<svg
   aria-hidden="true"
   role="img"
   class="iconify iconify--logos"
   width="15.88"
   height="15"
   preserveAspectRatio="xMidYMid"
   viewBox="0 0 127.5182 120.46875"
   version="1.1"
   id="svg6"
   sodipodi:docname="vite.svg"
   xml:space="preserve"
   inkscape:version="1.4.2 (f4327f4, 2025-05-13)"
   xmlns:inkscape="http://www.inkscape.org/namespaces/inkscape"
   xmlns:sodipodi="http://sodipodi.sourceforge.net/DTD/sodipodi-0.dtd"
   xmlns:xlink="http://www.w3.org/1999/xlink"
   xmlns="http://www.w3.org/2000/svg"
   xmlns:svg="http://www.w3.org/2000/svg"><sodipodi:namedview
     id="namedview6"
     pagecolor="#ffffff"
     bordercolor="#000000"
     borderopacity="0.25"
     inkscape:showpageshadow="2"
     inkscape:pageopacity="0.0"
     inkscape:pagecheckerboard="0"
     inkscape:deskcolor="#d1d1d1"
     inkscape:zoom="32"
     inkscape:cx="-4.625"
     inkscape:cy="13.078125"
     inkscape:window-width="1920"
     inkscape:window-height="1051"
     inkscape:window-x="-9"
     inkscape:window-y="-9"
     inkscape:window-maximized="1"
     inkscape:current-layer="svg6" /><defs
     id="defs5"><linearGradient
       id="linearGradient26"
       inkscape:collect="always"><stop
         style="stop-color:#a6c9a9;stop-opacity:1;"
         offset="0"
         id="stop26" /><stop
         style="stop-color:#8da7ff;stop-opacity:1;"
         offset="1"
         id="stop27" /></linearGradient><linearGradient
       id="IconifyId1813088fe1fbc01fb466"
       x1="-0.0082799997"
       x2="0.57635999"
       y1="0.076519996"
       y2="0.78411001"><stop
         offset="0%"
         stop-color="#41D1FF"
         id="stop1" /><stop
         offset="100%"
         stop-color="#BD34FE"
         id="stop2" /></linearGradient><linearGradient
       id="IconifyId1813088fe1fbc01fb467"
       x1="0.43375999"
       x2="0.50316"
       y1="0.02242"
       y2="0.89029998"><stop
         offset="0%"
         stop-color="#FFEA83"
         id="stop3" /><stop
         offset="8.333%"
         stop-color="#FFDD35"
         id="stop4" /><stop
         offset="100%"
         stop-color="#FFA800"
         id="stop5" /></linearGradient><linearGradient
       inkscape:collect="always"
       xlink:href="#linearGradient26"
       id="linearGradient27"
       x1="164.18384"
       y1="153.79353"
       x2="196.88547"
       y2="79.006691"
       gradientUnits="userSpaceOnUse"
       gradientTransform="translate(-101.39452,-56.21875)" /></defs><path
     style="fill:url(#linearGradient27);fill-opacity:1;stroke-width:8.03125"
     d="m 127.18634,95.598676 c -1.73483,2.71285 -2.67621,6.105794 -5.45035,7.927804 -10.96588,7.13428 -25.33404,-2.8173 -35.44674,-8.727344 -9.63977,-7.55142 -11.02108,-8.44724 -1.7148,-18.27675 C 97.26817,59.078756 97.55154,50.893776 97.9526,38.369876 97.12967,23.385736 94.75008,15.464916 90.14059,10.214766 89.28281,8.7880563 82.52362,3.0976363 75.02824,0.55276627 79.62892,16.529356 62.64106,19.145756 57.246088,41.863796 c -2.01393,12.29656 1.27984,27.69425 11.340852,37.47141 4.41216,4.87423 6.50908,7.81909 9.66201,11.64395 1.15369,1.1406 1.51253,2.59913 1.48645,4.21164 -1.20808,2.04794 -3.09142,2.01675 -5.56614,1.64656 l -18.828502,-6.68908 c -8.18103,-3.22041 -26.64835,-9.34391 -40.62994,-5.45036 -10.3354106,3.7026 -13.5711306,9.52949 -14.12139063,18.828524 -0.71407,6.52738 3.35872003,11.68708 7.43232003,16.84655 2.0887206,-6.60842 3.8943306,-10.30659 7.3271006,-12.43483 15.20394,-12.835414 34.61679,-11.392944 53.103702,-8.406713 10.84134,1.516213 15.42819,1.114723 20.78763,1.868153 6.31948,1.23329 12.10162,3.50826 17.83564,6.38506 12.0003,4.25697 9.04394,3.31598 13.66923,4.16505 4.184,-0.94083 6.10252,-3.62046 7.68006,-6.68907 z"
     id="path19"
     sodipodi:nodetypes="ccccccccccccccccccccccc" /></svg>
