<?xml version="1.0" standalone="no"?>
<!DOCTYPE svg PUBLIC "-//W3C//DTD SVG 20010904//EN"
 "http://www.w3.org/TR/2001/REC-SVG-20010904/DTD/svg10.dtd">
<svg version="1.0" xmlns="http://www.w3.org/2000/svg"
 width="714.000000pt" height="774.000000pt" viewBox="0 0 714.000000 774.000000"
 preserveAspectRatio="xMidYMid meet">
<metadata>
Created by potrace 1.10, written by Peter Selinger 2001-2011
</metadata>
<g transform="translate(0.000000,774.000000) scale(0.100000,-0.100000)"
fill="#000000" stroke="none">
<path d="M3326 6629 c-75 -22 -118 -40 -311 -135 -204 -100 -354 -181 -518
-278 -43 -25 -80 -46 -82 -46 -2 0 -99 -57 -216 -127 -234 -142 -225 -137
-294 -177 -28 -16 -79 -48 -115 -71 -36 -23 -72 -45 -80 -48 -8 -4 -27 -15
-42 -25 -15 -9 -91 -57 -170 -105 -79 -48 -199 -124 -268 -167 -69 -43 -165
-104 -215 -135 -49 -31 -146 -92 -215 -135 -69 -44 -159 -99 -200 -124 -41
-25 -81 -50 -89 -55 -10 -7 -13 -51 -12 -217 1 -114 4 -210 7 -213 4 -4 83 33
124 59 8 5 74 44 145 85 72 41 137 80 145 85 8 6 22 13 30 17 8 4 69 39 135
78 66 39 127 74 135 78 8 4 24 13 35 20 11 7 63 37 115 67 52 30 104 60 115
67 11 7 27 16 35 20 8 4 82 46 164 95 81 48 150 88 151 88 2 0 61 34 130 75
70 41 129 75 130 75 2 0 59 33 127 73 68 40 131 76 141 80 29 11 20 -19 -31
-95 -199 -299 -440 -774 -595 -1178 -61 -156 -154 -459 -187 -610 -5 -19 -15
-66 -24 -105 -28 -121 -55 -277 -76 -441 -30 -225 -30 -671 -1 -892 22 -166
41 -266 73 -382 11 -41 23 -84 25 -95 30 -123 152 -385 238 -515 57 -86 160
-204 228 -262 52 -45 182 -138 192 -138 2 0 26 -12 52 -28 51 -29 109 -51 213
-79 49 -13 103 -17 225 -17 169 0 270 17 395 64 30 12 66 25 80 30 107 35 357
183 505 299 163 128 452 419 575 581 19 25 37 47 40 50 17 14 175 228 236 318
119 178 164 246 174 267 6 11 19 34 30 50 11 17 23 37 27 45 4 8 39 69 78 135
103 173 291 534 388 745 14 30 44 95 66 143 23 49 41 90 41 92 0 2 14 34 31
72 83 185 93 208 164 388 26 66 53 134 60 150 7 17 29 75 49 130 20 55 43 108
50 117 12 16 35 23 161 48 116 23 316 74 425 110 76 24 276 120 338 161 24 16
45 29 48 29 9 0 117 86 141 112 20 21 23 38 28 128 3 58 8 147 10 198 6 111 1
114 -80 47 -61 -49 -143 -104 -220 -147 -73 -41 -254 -128 -265 -128 -5 0 -24
-6 -42 -14 -32 -14 -101 -34 -183 -55 -85 -21 -277 -43 -288 -32 -7 7 -5 40 7
106 12 71 17 152 17 303 0 422 -87 752 -257 974 -97 125 -247 224 -380 249
-88 17 -285 5 -356 -20 -161 -58 -218 -94 -335 -208 -90 -88 -148 -171 -204
-293 -92 -201 -105 -475 -33 -685 66 -191 225 -405 404 -542 142 -109 422
-267 520 -293 22 -6 41 -18 45 -28 5 -18 -36 -143 -95 -287 -16 -38 -41 -101
-55 -140 -80 -208 -231 -533 -332 -715 -17 -30 -47 -86 -68 -125 -21 -38 -46
-83 -56 -100 -10 -16 -27 -48 -39 -69 -45 -83 -325 -504 -401 -604 -276 -361
-634 -732 -814 -844 -162 -101 -272 -139 -423 -145 -120 -6 -161 1 -267 45
-296 121 -503 522 -556 1072 -41 434 14 1036 140 1520 34 130 110 377 141 460
12 30 25 66 30 80 55 163 200 483 303 670 16 30 43 79 58 108 58 106 92 166
118 211 15 25 30 53 34 61 4 8 15 27 25 42 9 15 63 102 120 195 57 92 126 202
152 243 27 41 55 85 62 97 7 11 49 81 94 155 102 170 107 180 88 207 -18 25
-29 25 -118 0z m1644 -512 c160 -38 308 -219 370 -453 26 -99 37 -326 21 -474
-14 -145 -39 -272 -54 -282 -15 -10 -62 -3 -142 22 -233 71 -428 224 -520 408
-62 123 -70 165 -69 342 1 179 13 232 70 308 41 53 130 114 187 128 67 16 72
16 137 1z"/>
</g>
</svg>
