<?xml version="1.0" encoding="UTF-8" standalone="no"?>
<!-- Created with Inkscape (http://www.inkscape.org/) -->

<svg
   width="80mm"
   height="150mm"
   viewBox="0 0 80 150"
   version="1.1"
   id="svg1"
   xml:space="preserve"
   inkscape:version="1.4.2 (f4327f4, 2025-05-13)"
   sodipodi:docname="bloom.svg"
   xmlns:inkscape="http://www.inkscape.org/namespaces/inkscape"
   xmlns:sodipodi="http://sodipodi.sourceforge.net/DTD/sodipodi-0.dtd"
   xmlns:xlink="http://www.w3.org/1999/xlink"
   xmlns="http://www.w3.org/2000/svg"
   xmlns:svg="http://www.w3.org/2000/svg"><sodipodi:namedview
     id="namedview1"
     pagecolor="#acdab0"
     bordercolor="#000000"
     borderopacity="0.25"
     inkscape:showpageshadow="2"
     inkscape:pageopacity="0.0"
     inkscape:pagecheckerboard="0"
     inkscape:deskcolor="#d1d1d1"
     inkscape:document-units="mm"
     inkscape:zoom="1.8101934"
     inkscape:cx="76.234948"
     inkscape:cy="384.76552"
     inkscape:window-width="1920"
     inkscape:window-height="1051"
     inkscape:window-x="-9"
     inkscape:window-y="-9"
     inkscape:window-maximized="1"
     inkscape:current-layer="layer1"
     showgrid="false" /><defs
     id="defs1"><linearGradient
       id="linearGradient7"
       inkscape:collect="always"><stop
         style="stop-color:#bfdec1;stop-opacity:0.94509804;"
         offset="0"
         id="stop7" /><stop
         style="stop-color:#cfedcf;stop-opacity:1;"
         offset="1"
         id="stop8" /></linearGradient><linearGradient
       inkscape:collect="always"
       xlink:href="#linearGradient7"
       id="linearGradient8"
       x1="23.926668"
       y1="63.546841"
       x2="77.230759"
       y2="149.47183"
       gradientUnits="userSpaceOnUse" /></defs><g
     inkscape:label="Layer 1"
     inkscape:groupmode="layer"
     id="layer1"><circle
       id="path2"
       style="fill:#93aeee;stroke:#000000;stroke-width:0.264583"
       cx="73.239029"
       cy="-30.00153"
       r="0.067162596" /><path
       id="path3"
       style="fill:url(#linearGradient8);fill-opacity:0.94509804;stroke-width:0.229931"
       d="M 34.483167 69.585933 C 28.301455 69.729727 21.487746 77.078554 27.737325 83.434184 C 18.451181 80.542337 16.81582 102.70789 32.318958 97.914437 C 28.512697 107.58494 43.138428 109.57991 47.134074 103.84741 C 48.464467 106.26467 50.153048 108.62448 52.290865 112.25981 C 55.512105 118.98879 56.29421 126.34779 54.592017 133.51588 C 52.045909 121.85427 42.111877 118.65464 31.551562 119.71259 C 38.764855 125.90038 44.017294 137.41266 53.802401 135.5385 C 51.665961 139.873 48.406661 142.12439 47.074646 145.82831 A 8.6979218 9.5803204 0 0 0 43.265576 144.77773 C 43.692848 144.09767 44.3417 142.94217 44.680477 141.90348 C 43.235611 142.72093 43.37335 143.3078 43.010811 144.77669 A 8.6979218 9.5803204 0 0 0 42.694552 144.78754 C 42.087528 143.45118 39.497246 141.00437 38.92889 141.24151 C 39.324247 143.4952 40.99672 143.87081 42.279073 144.8201 A 8.6979218 9.5803204 0 0 0 37.196179 147.33261 C 32.465444 145.84367 26.189222 146.05504 20.111434 152.16901 C 26.273068 152.95893 30.932173 153.35478 34.448543 153.49812 A 8.6979218 9.5803204 0 0 0 34.413403 154.35647 A 8.6979218 9.5803204 0 0 0 43.11158 163.93676 A 8.6979218 9.5803204 0 0 0 49.784041 160.50183 A 10.147575 10.840889 0 0 0 56.483374 163.20037 A 10.147575 10.840889 0 0 0 66.34117 154.93163 A 12.039461 13.201483 20.542762 0 0 67.204683 155.58585 A 12.039461 13.201483 20.542762 0 0 84.179875 151.27965 A 12.039461 13.201483 20.542762 0 0 81.184192 133.31331 A 12.039461 13.201483 20.542762 0 0 64.209517 137.61899 A 12.039461 13.201483 20.542762 0 0 62.133158 143.35404 A 10.147575 10.840889 0 0 0 56.483374 141.51849 A 10.147575 10.840889 0 0 0 52.887728 142.22181 C 56.753753 137.04601 61.892389 131.01548 56.733488 114.35116 C 68.62567 113.38744 77.146822 106.36203 73.189848 94.867594 C 64.796105 105.21329 59.644996 102.09983 55.492737 111.37046 C 51.140254 104.25926 49.215562 100.65454 48.394462 98.579513 C 60.876813 105.08761 64.715569 84.169523 53.369869 84.158687 C 63.200823 76.875952 47.685876 62.803313 41.235209 74.625936 C 39.972564 70.943849 37.293036 69.520563 34.483167 69.585933 z M 40.585636 81.991378 A 5.5382451 5.3753662 0 0 1 46.1238 87.36676 A 5.5382451 5.3753662 0 0 1 40.585636 92.74266 A 5.5382451 5.3753662 0 0 1 35.04799 87.36676 A 5.5382451 5.3753662 0 0 1 40.585636 81.991378 z M 72.668433 97.887048 C 71.515664 100.46553 69.487057 109.21428 56.944328 112.52957 C 62.877959 110.43412 68.65716 106.77265 72.668433 97.887048 z M 37.157422 121.86388 C 43.286098 125.01114 49.244345 128.45462 53.038623 133.57169 C 48.107094 128.79812 42.676105 124.81845 37.157422 121.86388 z " /></g></svg>
