<?xml version="1.0" encoding="UTF-8" standalone="no"?>
<!-- Created with Inkscape (http://www.inkscape.org/) -->

<svg
   width="55mm"
   height="100mm"
   viewBox="0 0 55 100"
   version="1.1"
   id="svg1"
   xml:space="preserve"
   inkscape:version="1.4.2 (f4327f4, 2025-05-13)"
   sodipodi:docname="bud.svg"
   xmlns:inkscape="http://www.inkscape.org/namespaces/inkscape"
   xmlns:sodipodi="http://sodipodi.sourceforge.net/DTD/sodipodi-0.dtd"
   xmlns:xlink="http://www.w3.org/1999/xlink"
   xmlns="http://www.w3.org/2000/svg"
   xmlns:svg="http://www.w3.org/2000/svg"><sodipodi:namedview
     id="namedview1"
     pagecolor="#93aeee"
     bordercolor="#000000"
     borderopacity="0.25"
     inkscape:showpageshadow="2"
     inkscape:pageopacity="0.0"
     inkscape:pagecheckerboard="0"
     inkscape:deskcolor="#d1d1d1"
     inkscape:document-units="mm"
     inkscape:zoom="5.6568545"
     inkscape:cx="111.36931"
     inkscape:cy="323.94328"
     inkscape:window-width="1920"
     inkscape:window-height="1051"
     inkscape:window-x="-9"
     inkscape:window-y="-9"
     inkscape:window-maximized="1"
     inkscape:current-layer="layer1"
     showgrid="false" /><defs
     id="defs1"><linearGradient
       id="linearGradient2"
       inkscape:collect="always"><stop
         style="stop-color:#b5c7ff;stop-opacity:1;"
         offset="0"
         id="stop2" /><stop
         style="stop-color:#e2e2f1;stop-opacity:0.16355141;"
         offset="1"
         id="stop3" /></linearGradient><linearGradient
       inkscape:collect="always"
       xlink:href="#linearGradient2"
       id="linearGradient3"
       x1="54.461449"
       y1="99.085548"
       x2="0.087997057"
       y2="0.39596099"
       gradientUnits="userSpaceOnUse"
       gradientTransform="matrix(0.63786758,-0.1180604,0.11851613,0.64032984,9.1099307,36.279207)" /></defs><g
     inkscape:label="Layer 1"
     inkscape:groupmode="layer"
     id="layer1"><path
       id="path2"
       style="fill:url(#linearGradient3);stroke-width:0.171967"
       inkscape:transform-center-x="2.6304497"
       inkscape:transform-center-y="1.5337698"
       d="m 25.921228,45.033871 c -1.060477,0.510078 -4.256304,5.51805 -5.772592,8.156728 -3.290703,0.31784 -7.572287,1.200673 -7.34612,2.601721 1.590467,11.029191 7.750491,21.53525 23.866476,19.718768 1.166256,9.206885 0.249961,19.247057 -2.120833,24.621912 l 3.236716,0.12292 c -0.180939,-1.103807 0.679956,-3.868058 1.05981,-5.139502 1.815267,-2.674175 8.687447,-3.214703 10.041882,-9.157706 5.236476,-2.707036 4.41267,-5.783572 3.815222,-9.688259 -0.1401,-0.456825 -2.903608,0.468568 -2.903608,0.468568 -0.732906,-1.161164 -3.065238,-1.990293 -3.073502,-1.918832 -0.276321,-0.11325 -2.014021,1.44665 -2.835953,2.259329 -1.197083,-0.176532 -2.795847,-0.247385 -2.838588,0.246177 -0.403946,3.868964 1.350989,8.270602 6.382108,8.709737 -0.380315,2.99587 -3.907074,4.428232 -8.453261,7.154169 0.613599,-4.559386 1.280191,-11.023142 0.06628,-18.686608 12.865131,-9.801938 8.146237,-19.062526 3.879964,-29.514592 -0.684882,-1.175473 -7.365467,3.263552 -7.365467,3.263552 -2.738715,-2.733137 -9.483556,-3.462197 -9.456313,-3.257936 -0.05058,-0.008 -0.111482,0.0061 -0.182173,0.04012 z m 1.249109,2.995001 c 2.12821,0.429699 4.143622,1.019014 5.872049,2.016225 -1.595065,1.258079 -2.737142,2.537287 -3.910562,3.814961 -1.790881,-0.384193 -3.665479,-0.44303 -5.52582,-0.557013 1.008412,-2.146232 2.21318,-3.868113 3.564333,-5.274173 z m -10.628718,8.984087 c 3.353978,-0.515675 6.772332,-0.482027 10.212863,-0.258127 -3.648885,6.211899 -3.330695,9.192281 -4.049106,13.016923 -1.714916,-1.657333 -3.391567,-3.022027 -6.163757,-12.758796 z m 24.33606,-8.572494 c 4.794715,12.203013 3.13317,14.099937 2.189751,17.143675 -5.32346,8.892115 -11.141785,8.205335 -17.021798,6.326092 -0.157076,-13.201183 7.128651,-18.555314 14.832047,-23.469767 z m 1.393893,29.620721 c 1.236949,0.115059 2.448339,0.421604 3.65106,0.794365 -1.842198,1.786771 -1.990689,2.822596 -2.581969,4.054627 -0.46368,-0.708792 -0.939626,-1.315298 -1.069091,-4.848992 z m 4.565438,-2.122199 c 0.718384,0.329106 1.382716,0.702708 1.909196,1.189315 -0.677247,0.287978 -1.195255,0.622046 -1.724415,0.953047 -0.602531,-0.28459 -1.263428,-0.46636 -1.914378,-0.665521 0.54685,-0.639116 1.126007,-1.117745 1.729597,-1.476841 z m 2.50707,2.154203 c 0.749641,-0.321188 1.534713,-0.582188 2.326892,-0.831646 0.631365,4.542731 -0.125498,5.04096 -0.72811,5.989352 -2.672644,2.549049 -4.679554,1.814643 -6.603565,0.671216 0.828037,-3.360081 2.75586,-4.865384 5.004777,-5.82894 z"
       sodipodi:nodetypes="ccccccccccccccccccccccccccccccccccccccccccccccccc" /><circle
       id="path11"
       style="fill:#91adf1;stroke:#000000;stroke-width:0.264583;fill-opacity:0.94509804"
       cx="47.776711"
       cy="59.988297"
       r="0.011872782" /></g></svg>
