<?xml version="1.0" encoding="UTF-8" standalone="no"?>
<svg
   version="1.0"
   width="300.000000pt"
   height="533.000000pt"
   viewBox="0 0 300.000000 533.000000"
   preserveAspectRatio="xMidYMid meet"
   id="svg38"
   sodipodi:docname="pot.svg"
   inkscape:version="1.4.2 (f4327f4, 2025-05-13)"
   xmlns:inkscape="http://www.inkscape.org/namespaces/inkscape"
   xmlns:sodipodi="http://sodipodi.sourceforge.net/DTD/sodipodi-0.dtd"
   xmlns="http://www.w3.org/2000/svg"
   xmlns:svg="http://www.w3.org/2000/svg">
  <defs
     id="defs38" />
  <sodipodi:namedview
     id="namedview38"
     pagecolor="#ffffff"
     bordercolor="#000000"
     borderopacity="0.25"
     inkscape:showpageshadow="2"
     inkscape:pageopacity="0.0"
     inkscape:pagecheckerboard="0"
     inkscape:deskcolor="#d1d1d1"
     inkscape:document-units="pt"
     inkscape:zoom="2.3442777"
     inkscape:cx="354.05362"
     inkscape:cy="323.12725"
     inkscape:window-width="1920"
     inkscape:window-height="1051"
     inkscape:window-x="-9"
     inkscape:window-y="-9"
     inkscape:window-maximized="1"
     inkscape:current-layer="g38" />
  <metadata
     id="metadata1">
Created by potrace 1.10, written by Peter Selinger 2001-2011
</metadata>
  <g
     transform="translate(0.000000,533.000000) scale(0.100000,-0.100000)"
     fill="#000000"
     stroke="none"
     id="g38">
    <path
       d="m 2140.6675,4961 -2,-373 -24,15 c -22,15 -25,15 -30,1 -3,-9 -6,-27 -6,-40 0,-24 1,-24 25,-8 14,9 27,15 29,13 9,-10 14,-579 5,-584 -13,-9 -11,-142 3,-164 10,-16 7,-23 -20,-46 -17,-14 -34,-35 -37,-45 -4,-11 -13,-20 -21,-20 -11,0 -14,-17 -14,-79 0,-44 -4,-82 -10,-86 -5,-3 -19,-33 -31,-66 -24,-65 -48,-89 -136,-133 -68,-34 -163,-113 -219,-184 -91,-113 -136,-241 -150,-422 -13,-176 25,-271 165,-411 142,-142 247,-187 461,-196 134,-6 221,12 349,74 106,50 238,184 289,291 l 37,77 v 135 c -1,158 -15,225 -76,349 -56,113 -178,237 -295,298 -95,50 -107,62 -129,128 -10,28 -24,58 -34,69 -12,14 -15,34 -13,87 2,51 -1,69 -10,69 -7,0 -20,15 -28,33 -8,17 -26,37 -40,44 -14,7 -20,13 -14,13 6,0 24,-6 40,-14 49,-24 193,-49 247,-43 62,8 66,12 39,39 l -21,21 29,34 c 17,19 30,37 30,42 0,4 -37,11 -82,14 -85,6 -217,44 -248,72 -9,8 -21,15 -27,15 -9,0 -28,578 -19,588 2,2 15,-4 28,-12 29,-19 38,-13 38,24 0,37 -8,42 -41,24 l -29,-14 -3,372 -2,373 z m 98,-1048 c 0,-7 5,-13 11,-13 5,0 7,5 4,10 -3,6 -1,10 4,10 6,0 11,-7 11,-15 0,-8 5,-15 11,-15 5,0 7,5 4,10 -8,13 -1,13 46,-2 22,-6 39,-14 39,-19 0,-4 7,-10 16,-13 8,-3 12,-2 9,4 -3,6 1,10 10,10 9,0 13,-4 10,-10 -7,-11 65,-7 85,5 19,11 -4,-26 -29,-49 -21,-19 -21,-19 -2,-40 l 20,-21 -42,-1 c -23,0 -45,5 -49,11 -5,6 -11,5 -17,-4 -8,-12 -12,-12 -25,-2 -13,11 -16,11 -16,1 0,-9 -7,-7 -20,5 -15,14 -20,15 -20,4 -1,-10 -4,-9 -14,4 -14,18 -32,24 -21,7 3,-5 1,-10 -4,-10 -6,0 -11,5 -11,11 0,6 -9,8 -21,4 -15,-5 -19,-4 -14,5 4,7 1,11 -6,9 -27,-3 -40,1 -34,11 3,6 0,10 -9,10 -11,0 -15,16 -18,66 -1,36 -1,67 1,69 7,8 91,-40 91,-52 z m -60,-148 c 0,-8 8,-15 18,-15 9,-1 2,-7 -17,-15 -42,-19 -66,-18 -26,0 35,16 19,20 -21,5 -39,-15 -40,-6 -2,19 39,25 48,26 48,6 z m 68,-77 c -5,-14 -125,-23 -165,-13 -53,13 -18,25 73,25 72,0 95,-3 92,-12 z m -45,-35 c -23,-2 -64,-2 -90,0 -26,2 -7,3 42,3 50,0 71,-1 48,-3 z m 5,-20 c -26,-2 -71,-2 -100,0 -29,2 -8,3 47,3 55,0 79,-1 53,-3 z m -5,-20 c -23,-2 -64,-2 -90,0 -26,2 -7,3 42,3 50,0 71,-1 48,-3 z m -5,-20 c -27,-2 -69,-2 -95,0 -27,2 -5,3 47,3 52,0 74,-1 48,-3 z m 47,-23 c 4,-6 -28,-10 -89,-10 -57,0 -96,4 -96,10 0,6 36,10 89,10 50,0 93,-4 96,-10 z m 37,-66 c 10,-21 18,-46 18,-55 0,-22 45,-60 115,-99 67,-37 147,-92 142,-97 -2,-2 -39,6 -82,17 -131,34 -511,25 -692,-16 l -28,-6 30,26 c 17,14 64,43 105,65 87,46 113,71 130,126 25,80 25,80 141,79 l 103,-1 z m 202,-249 c 83,-22 75,-28 -60,-52 -138,-24 -473,-24 -559,0 -97,27 -113,29 -70,9 63,-30 159,-42 330,-42 167,0 340,20 414,47 l 45,16 33,-39 c 114,-132 154,-230 173,-418 12,-119 1,-202 -36,-281 -15,-31 -30,-58 -35,-61 -13,-8 -11,10 3,24 7,7 8,12 2,12 -19,0 -13,40 9,55 17,12 19,17 8,27 -10,11 -17,8 -37,-15 -13,-16 -22,-33 -19,-38 4,-5 1,-9 -5,-9 -7,0 -10,7 -6,15 3,8 1,15 -4,15 -18,0 -10,-29 10,-40 30,-16 27,-70 -6,-101 -22,-20 -25,-20 -16,-4 7,13 7,26 1,38 -6,10 -7,27 -4,37 9,27 -3,60 -21,60 -25,0 -26,-26 -3,-72 l 21,-43 -24,23 c -24,22 -48,29 -48,15 1,-29 16,-56 36,-64 13,-4 24,-13 24,-18 0,-11 -87,-89 -115,-103 -11,-5 -3,5 18,22 20,18 37,36 37,42 0,15 -43,5 -48,-12 -5,-13 -3,-13 14,0 15,11 16,11 7,0 -26,-28 -40,-20 -38,22 2,38 25,81 25,47 0,-8 -5,-20 -12,-27 -9,-9 -9,-12 0,-12 19,0 38,48 24,62 -8,8 -15,8 -24,0 -11,-8 -17,-4 -27,19 -7,16 -19,29 -27,29 -21,0 -17,-54 6,-75 28,-26 25,-39 -5,-19 -25,16 -25,16 -25,-10 0,-16 11,-37 26,-51 14,-13 24,-32 22,-42 -3,-16 -12,-17 -68,-13 -36,3 -160,5 -277,5 h -212 l 6,28 c 6,31 -15,38 -37,12 -7,-8 -16,-15 -21,-15 -17,0 -9,30 16,54 33,33 33,58 1,54 -16,-2 -31,6 -45,22 l -20,25 -1,-37 c 0,-20 5,-40 10,-43 7,-4 8,3 4,22 -4,15 -3,24 2,20 4,-4 9,-21 10,-38 2,-23 -1,-28 -9,-20 -18,18 -27,13 -27,-17 0,-16 9,-37 20,-47 28,-25 25,-35 -10,-35 -37,0 -54,27 -34,54 15,21 10,38 -10,30 -7,-3 -16,2 -19,10 -4,9 -11,16 -17,16 -15,0 -12,-26 5,-40 8,-7 15,-19 15,-27 0,-25 -40,6 -56,42 -19,47 -19,49 21,68 19,9 35,23 35,32 0,25 -37,17 -60,-12 -14,-18 -19,-21 -16,-10 3,10 6,31 6,47 0,22 5,29 28,33 15,3 36,12 46,20 27,20 11,41 -25,33 -27,-5 -29,-3 -29,23 0,35 -27,62 -41,40 -12,-19 -11,-76 1,-84 6,-3 10,-16 10,-28 -1,-20 -2,-21 -14,-4 -7,9 -18,17 -25,17 -17,0 -13,-45 7,-71 10,-13 23,-42 30,-64 l 11,-40 -61,64 c -36,38 -73,91 -92,130 -30,64 -31,70 -31,206 1,207 39,323 152,460 43,51 60,64 95,73 176,43 577,52 712,17 z m -765,-742 c 1,-13 -3,-23 -9,-23 -13,0 -24,46 -15,67 7,17 8,16 15,-2 5,-11 9,-30 9,-42 z m 907,-110 c 19,-26 17,-35 -6,-23 -11,6 -20,17 -20,25 0,20 10,19 26,-2 z m -126,-112 c -1,-12 -5,-10 -20,8 -26,30 -26,49 0,26 11,-10 20,-25 20,-34 z m -560,-26 c 0,-15 -38,-41 -47,-32 -5,5 33,47 42,47 3,0 5,-7 5,-15 z m 475,-53 40,-7 -90,-27 c -155,-46 -267,-46 -428,-1 -127,35 -26,53 258,47 99,-2 198,-8 220,-12 z"
       id="path1"
       style="fill:#c7e6c8;fill-opacity:1" />
    <path
       d="m 2070.6675,3148 c -21,-21 -13,-56 28,-134 22,-42 40,-85 40,-96 0,-12 23,25 51,81 44,89 50,106 40,127 -14,31 -54,32 -75,2 -9,-12 -16,-17 -16,-11 0,15 -28,43 -44,43 -6,0 -17,-5 -24,-12 z m 54,-37 c 3,-14 9,-35 13,-46 7,-16 9,-13 15,18 10,55 66,77 66,26 0,-11 -16,-51 -36,-89 l -35,-69 -40,74 c -42,79 -45,95 -28,112 17,17 38,4 45,-26 z"
       id="path2"
       style="fill:#c7e6c8;fill-opacity:1" />
    <path
       d="m 2248.6675,3140 c 0,-13 7,-20 20,-20 13,0 20,7 20,20 0,13 -7,20 -20,20 -13,0 -20,-7 -20,-20 z"
       id="path3"
       style="fill:#c7e6c8;fill-opacity:1" />
    <path
       d="m 1710.6675,3105 c -35,-29 -45,-67 -25,-95 29,-42 123,-13 143,43 13,39 13,43 -6,61 -24,24 -78,20 -112,-9 z m 92,9 c 16,-6 22,-50 8,-70 -14,-20 -57,-44 -79,-44 -15,0 -27,9 -35,25 -23,50 50,111 106,89 z"
       id="path4"
       style="fill:#c7e6c8;fill-opacity:1" />
    <path
       d="m 1624.6675,3028 -27,-53 25,29 c 20,24 41,76 31,76 -2,0 -15,-24 -29,-52 z"
       id="path5"
       style="fill:#c7e6c8;fill-opacity:1" />
    <path
       d="m 2026.6675,3074 c -10,-10 4,-44 18,-44 15,0 17,10 8,34 -6,16 -16,20 -26,10 z"
       id="path6"
       style="fill:#c7e6c8;fill-opacity:1" />
    <path
       d="m 2255.6675,2993 c -4,-3 -7,-17 -7,-30 0,-16 6,-23 19,-23 18,0 35,35 25,52 -6,10 -28,11 -37,1 z"
       id="path7"
       style="fill:#c7e6c8;fill-opacity:1" />
    <path
       d="m 1604.6675,2961 c -18,-20 -51,-179 -43,-209 3,-9 5,-3 6,15 0,17 5,34 10,37 5,3 12,36 16,72 5,47 10,63 17,56 16,-16 48,4 48,28 0,26 -31,26 -54,1 z"
       id="path8"
       style="fill:#c7e6c8;fill-opacity:1" />
    <path
       d="m 2038.6675,2866 c -150,-40 -239,-197 -193,-338 16,-47 24,-56 68,-80 28,-14 88,-34 134,-43 70,-15 97,-16 168,-6 92,11 182,46 224,87 26,25 26,25 58,7 31,-17 32,-17 46,1 14,18 18,73 8,109 -5,21 -41,22 -69,2 -21,-14 -22,-12 -34,46 -31,145 -144,230 -304,228 -34,0 -81,-6 -106,-13 z m 255,-36 c 80,-39 113,-83 140,-187 20,-77 35,-113 35,-85 0,16 37,52 54,52 20,0 28,-40 9,-47 -14,-6 -14,-8 1,-18 19,-15 11,-45 -12,-45 -8,0 -23,7 -33,16 -17,15 -21,14 -58,-18 -49,-42 -109,-58 -246,-65 -106,-6 -227,12 -285,42 -37,19 -54,77 -47,157 17,190 246,292 442,198 z"
       id="path9"
       style="fill:#c7e6c8;fill-opacity:1" />
    <path
       d="m 1975.6675,2564 c -11,-11 5,-34 23,-34 24,0 36,18 21,33 -8,8 -11,6 -11,-8 -1,-19 -1,-19 -14,-3 -7,10 -16,15 -19,12 z"
       id="path10"
       style="fill:#c7e6c8;fill-opacity:1" />
    <path
       d="m 2201.6675,2541 c -2,-29 37,-54 71,-45 56,14 39,49 -29,59 -36,6 -41,5 -42,-14 z m 71,-7 c 9,-3 16,-10 16,-15 0,-14 -44,-10 -66,6 -18,14 -18,14 8,15 14,0 33,-3 42,-6 z"
       id="path11"
       style="fill:#c7e6c8;fill-opacity:1" />
    <path
       d="m 2067.6675,2542 c 15,-11 6,-36 -10,-27 -5,4 -9,1 -9,-5 0,-6 10,-10 23,-8 29,4 31,41 2,46 -15,2 -17,1 -6,-6 z"
       id="path12"
       style="fill:#c7e6c8;fill-opacity:1" />
    <path
       d="m 2648.6675,2577 c 0,-8 9,-22 21,-33 21,-19 21,-19 17,11 -3,30 -38,51 -38,22 z"
       id="path13"
       style="fill:#c7e6c8;fill-opacity:1" />
  </g>
</svg>
