<?xml version="1.0" encoding="UTF-8" standalone="no"?>
<!-- Created with Inkscape (http://www.inkscape.org/) -->

<svg
   width="210mm"
   height="297mm"
   viewBox="0 0 210 297"
   version="1.1"
   id="svg1"
   xml:space="preserve"
   sodipodi:docname="sprout.svg"
   inkscape:version="1.4.2 (f4327f4, 2025-05-13)"
   xmlns:inkscape="http://www.inkscape.org/namespaces/inkscape"
   xmlns:sodipodi="http://sodipodi.sourceforge.net/DTD/sodipodi-0.dtd"
   xmlns:xlink="http://www.w3.org/1999/xlink"
   xmlns="http://www.w3.org/2000/svg"
   xmlns:svg="http://www.w3.org/2000/svg"><sodipodi:namedview
     id="namedview1"
     pagecolor="#ffffff"
     bordercolor="#000000"
     borderopacity="0.25"
     inkscape:showpageshadow="2"
     inkscape:pageopacity="0.0"
     inkscape:pagecheckerboard="0"
     inkscape:deskcolor="#d1d1d1"
     inkscape:document-units="mm"
     inkscape:zoom="0.52473017"
     inkscape:cx="207.72581"
     inkscape:cy="481.1997"
     inkscape:window-width="1920"
     inkscape:window-height="1051"
     inkscape:window-x="-9"
     inkscape:window-y="-9"
     inkscape:window-maximized="1"
     inkscape:current-layer="layer1" /><defs
     id="defs1"><linearGradient
       id="linearGradient1"
       inkscape:collect="always"><stop
         style="stop-color:#bfdfc1;stop-opacity:1;"
         offset="0"
         id="stop1" /><stop
         style="stop-color:#ccebcd;stop-opacity:1;"
         offset="1"
         id="stop2" /></linearGradient><linearGradient
       inkscape:collect="always"
       xlink:href="#linearGradient1"
       id="linearGradient2"
       x1="51.014629"
       y1="30.113997"
       x2="191.22919"
       y2="294.83337"
       gradientUnits="userSpaceOnUse" /></defs><g
     inkscape:label="Layer 1"
     inkscape:groupmode="layer"
     id="layer1"><path
       id="path1"
       style="fill:url(#linearGradient2);fill-opacity:0.737255;stroke-width:0.264583"
       d="M 89.040904,28.855861 C 86.739639,29.004823 78.651297,47.571513 101.70525,71.623276 90.43834,83.40699 85.943229,99.850191 82.99993,108.19934 c -14.789172,2.91262 -49.546487,24.90418 -36.201925,87.50061 -13.648809,-21.3765 -30.692478,6.71225 3.921724,22.19451 15.82542,32.00794 43.311286,52.77147 64.823951,57.98819 -3.0699,17.69738 17.38342,37.15701 17.18087,-2.45618 16.63619,-5.23669 33.09671,-11.00102 47.42036,-23.17533 6.9933,5.10501 23.25327,16.95201 29.23646,-5.34851 -0.34864,-5.4622 -8.46715,-13.90587 -13.9268,-0.81752 l -7.21352,-4.19561 c 15.68179,-26.49256 3.29203,-55.35996 -26.99318,-63.44264 6.89067,-6.52704 26.80925,-21.7109 16.40107,-28.16728 -8.16589,-2.04608 -15.66441,4.58464 -23.17533,11.05308 3.91032,-75.059003 -40.91691,-71.823813 -60.968379,-49.55977 0.391455,-12.505061 8.459009,-23.614218 19.253089,-34.227889 14.98469,16.540031 42.73557,11.63354 50.27239,-7.487399 C 162.3219,66.896037 141.35315,44.546889 119.88915,60.570204 120.64877,40.441646 102.9305,30.157141 89.24451,28.89927 c -0.06095,-0.03396 -0.129371,-0.04821 -0.203606,-0.04341 z m 7.583517,11.305253 c 3.201285,-0.02119 11.462439,12.641562 13.108239,24.821224 -4.72328,-4.503427 -3.92271,-9.389 -13.677197,-24.643974 0.164987,-0.118061 0.355539,-0.175838 0.568958,-0.17725 z m 24.453289,28.981177 c 5.32156,0.864096 14.2638,0.186221 21.17752,2.332157 -11.33483,2.670752 -17.67818,-0.898091 -21.17752,-2.332157 z m 3.31039,55.810549 c 0.0748,-0.003 0.14924,-0.002 0.22273,0.003 0.53446,0.0361 1.02105,0.28191 1.25264,0.84905 8.11601,13.86175 -19.33781,33.95761 -20.92586,6.55464 0.22852,-2.23254 2.82492,-1.65898 2.87941,0 6.41257,22.1383 17.84361,-1.45464 14.76861,-5.79862 -0.52438,-0.70388 0.68092,-1.56832 1.80247,-1.60817 z m -57.404764,22.94951 c 0.481335,-0.003 0.956358,0.30717 1.328084,1.12809 4.597135,23.23653 -17.755948,22.62086 -14.560868,2.9931 0.541909,-1.1908 1.897378,-0.51615 2.139404,0.26717 4.35474,15.48095 8.562105,10.23928 8.856307,-1.92391 0.08874,-0.93514 1.178136,-2.45785 2.237073,-2.46445 z m 38.541314,5.59707 c 1.74953,-0.0439 3.49905,0.0817 5.22707,0.4222 7.97194,23.63929 -33.769158,55.99192 -48.672994,20.00601 2.406992,-2.28424 5.058067,-4.07995 7.695654,-5.903 9.018336,12.38365 11.416734,3.42053 6.256983,-4.39043 4.992411,-1.22337 17.246577,-9.82771 29.493287,-10.13478 z"
       sodipodi:nodetypes="sccccccccccccccccccssccscccssccccssccccssccccs" /><path
       id="path6"
       style="fill:#d4a6a6;fill-opacity:0.737255;stroke-width:0.264583"
       d="m 110.80392,154.1676 c -12.190748,5.84749 -24.294021,11.90045 -28.93002,35.48517 11.719163,2.51213 34.39661,-16.37569 28.93002,-35.48517 z" /></g></svg>
